<?xml version="1.0" encoding="UTF-8" standalone="no"?>
<!-- Generator: Adobe Illustrator 22.1.0, SVG Export Plug-In . SVG Version: 6.00 Build 0)  -->

<svg
   xmlns:dc="http://purl.org/dc/elements/1.1/"
   xmlns:cc="http://creativecommons.org/ns#"
   xmlns:rdf="http://www.w3.org/1999/02/22-rdf-syntax-ns#"
   xmlns:svg="http://www.w3.org/2000/svg"
   xmlns="http://www.w3.org/2000/svg"
   xmlns:sodipodi="http://sodipodi.sourceforge.net/DTD/sodipodi-0.dtd"
   xmlns:inkscape="http://www.inkscape.org/namespaces/inkscape"
   version="1.1"
   id="Capa_1"
   x="0px"
   y="0px"
   viewBox="0 0 414.34638 374.39999"
   xml:space="preserve"
   sodipodi:docname="TSUNAMILAB_icon.svg"
   width="414.34637"
   height="374.39999"
   inkscape:version="0.92.3 (2405546, 2018-03-11)"><metadata
   id="metadata41"><rdf:RDF><cc:Work
       rdf:about=""><dc:format>image/svg+xml</dc:format><dc:type
         rdf:resource="http://purl.org/dc/dcmitype/StillImage" /><dc:title></dc:title></cc:Work></rdf:RDF></metadata><defs
   id="defs39" /><sodipodi:namedview
   pagecolor="#ffffff"
   bordercolor="#666666"
   borderopacity="1"
   objecttolerance="10"
   gridtolerance="10"
   guidetolerance="10"
   inkscape:pageopacity="0"
   inkscape:pageshadow="2"
   inkscape:window-width="1920"
   inkscape:window-height="1025"
   id="namedview37"
   showgrid="false"
   fit-margin-top="0"
   fit-margin-left="0"
   fit-margin-right="0"
   fit-margin-bottom="0"
   inkscape:zoom="0.19479167"
   inkscape:cx="816.78071"
   inkscape:cy="187.49998"
   inkscape:window-x="0"
   inkscape:window-y="27"
   inkscape:window-maximized="1"
   inkscape:current-layer="Capa_1" />
<style
   type="text/css"
   id="style2">
	.st0{fill:#00B6DD;}
	.st1{fill:#00B6DD;stroke:#00B6DD;stroke-width:0.25;stroke-miterlimit:10;}
	.st2{fill:#0097C3;}
	.st3{fill:#7FE7F7;}
</style>
<path
   class="st0"
   d="m 224.28071,295.70001 c 0,0 138.1,-20.2 177.5,-80.1 39.4,-59.9 -24.5,-129.500001 -46.1,-136.900001 0,0 28.2,62.700001 14.6,101.600001 -8.7,36.3 -37.2,64.6 -73.5,73.1"
   id="path4"
   inkscape:connector-curvature="0"
   style="fill:#00b6dd" />










<circle
   class="st2"
   cx="203.68071"
   cy="187.2"
   r="187.2"
   id="circle26"
   style="fill:#0097c3" />
<path
   class="st0"
   d="m 0.38071453,214.50001 c 0,0 -1.60000003,-43.4 82.90000047,-19.6 43.099995,13.9 88.299995,20.5 133.599995,19.6 6.9,0 -5.6,17.7 -25.2,36.1 -24.9,23.5 -61.5,48.4 -82.9,41.1 -38.299995,-13.2 -37.799995,-22.3 -50.499995,-44.8 -4.9,-8.8 -33.1,-31.4 -42.6,-19.1 -19.5000005,23.5 -15.30000047,-13.3 -15.30000047,-13.3 z"
   id="path28"
   inkscape:connector-curvature="0"
   style="fill:#00b6dd" />
<path
   class="st3"
   d="m 76.080715,275.00001 c 45.499995,33.8 109.299995,27 146.599995,-15.7 17.7,-19.1 47,-47 39.2,-58.9 -21.2,-34.6 -10.3,-86.9 27.6,-83.2 0,0 -9.9,-42.500001 -72.3,-24.600001 -72.9,21.000001 -35.6,164.900001 -114,179.700001 -8.999995,1.6 -17.999995,2.5 -27.099995,2.7"
   id="path30"
   inkscape:connector-curvature="0"
   style="fill:#7fe7f7" />
<path
   class="st3"
   d="m 175.28071,122.60001 c 0,0 -7.7,-31.400001 -54.7,-18.5 -54.999995,15.7 -23.499995,127.3 -83.599995,129.7 -14.8,1.8 -28.3000005,-8.6 -30.1000005,-23.4 -0.3,-2.6 -0.3,-5.2 0.2,-7.8 4.1000005,-15.7 -23.4999995,29.2 8.9000005,55.3 33.1,25.6 80.8,19.6 106.399995,-13.6 1.2,-1.5 2.3,-3 3.3,-4.6 29.7,-42 3.7,-121.5 49.6,-117.1 z"
   id="path32"
   inkscape:connector-curvature="0"
   style="fill:#7fe7f7" />
<path
   class="st3"
   d="m 116.88071,294.10001 c 178.3,33.9 241.7,-33.7 263.8,-60.2 6.1,-7.1 31.4,-39.5 31.4,-39.5 -9.1,11.5 -19.3,22 -30.6,31.4 -20.4,8.7 -42.8,11.6 -64.7,8.2 -37.2,-3.5 -65.4,-35.2 -64.4,-72.6 0,-11.4 -1.9,-33.7 7.2,-43.7"
   id="path34"
   inkscape:connector-curvature="0"
   style="fill:#7fe7f7" />
</svg>